<svg width="164" height="27" viewBox="0 0 164 27" fill="none" xmlns="http://www.w3.org/2000/svg">
<path d="M9.112 26.724C7.46933 26.724 5.99733 26.4573 4.696 25.924C3.39467 25.3907 2.34933 24.6013 1.56 23.556C0.792 22.5107 0.386667 21.252 0.344 19.78H6.168C6.25333 20.612 6.54133 21.252 7.032 21.7C7.52267 22.1267 8.16267 22.34 8.952 22.34C9.76267 22.34 10.4027 22.1587 10.872 21.796C11.3413 21.412 11.576 20.8893 11.576 20.228C11.576 19.6733 11.384 19.2147 11 18.852C10.6373 18.4893 10.1787 18.1907 9.624 17.956C9.09067 17.7213 8.32267 17.4547 7.32 17.156C5.86933 16.708 4.68533 16.26 3.768 15.812C2.85067 15.364 2.06133 14.7027 1.4 13.828C0.738667 12.9533 0.408 11.812 0.408 10.404C0.408 8.31333 1.16533 6.68133 2.68 5.508C4.19467 4.31333 6.168 3.716 8.6 3.716C11.0747 3.716 13.0693 4.31333 14.584 5.508C16.0987 6.68133 16.9093 8.324 17.016 10.436H11.096C11.0533 9.71067 10.7867 9.14533 10.296 8.74C9.80533 8.31333 9.176 8.1 8.408 8.1C7.74667 8.1 7.21333 8.28133 6.808 8.644C6.40267 8.98533 6.2 9.48667 6.2 10.148C6.2 10.8733 6.54133 11.4387 7.224 11.844C7.90667 12.2493 8.97333 12.6867 10.424 13.156C11.8747 13.6467 13.048 14.116 13.944 14.564C14.8613 15.012 15.6507 15.6627 16.312 16.516C16.9733 17.3693 17.304 18.468 17.304 19.812C17.304 21.092 16.9733 22.2547 16.312 23.3C15.672 24.3453 14.7333 25.1773 13.496 25.796C12.2587 26.4147 10.7973 26.724 9.112 26.724ZM43.4555 8.452C45.6742 8.452 47.4342 9.124 48.7355 10.468C50.0582 11.812 50.7195 13.6787 50.7195 16.068V26.5H45.2795V16.804C45.2795 15.652 44.9702 14.7667 44.3515 14.148C43.7542 13.508 42.9222 13.188 41.8555 13.188C40.7888 13.188 39.9462 13.508 39.3275 14.148C38.7302 14.7667 38.4315 15.652 38.4315 16.804V26.5H32.9915V16.804C32.9915 15.652 32.6822 14.7667 32.0635 14.148C31.4662 13.508 30.6342 13.188 29.5675 13.188C28.5008 13.188 27.6582 13.508 27.0395 14.148C26.4422 14.7667 26.1435 15.652 26.1435 16.804V26.5H20.6715V8.644H26.1435V10.884C26.6982 10.1373 27.4235 9.55067 28.3195 9.124C29.2155 8.676 30.2288 8.452 31.3595 8.452C32.7035 8.452 33.8982 8.74 34.9435 9.316C36.0102 9.892 36.8422 10.7133 37.4395 11.78C38.0582 10.7987 38.9008 9.99867 39.9675 9.38C41.0342 8.76133 42.1968 8.452 43.4555 8.452ZM53.4585 17.54C53.4585 15.7053 53.7998 14.0947 54.4825 12.708C55.1865 11.3213 56.1358 10.2547 57.3305 9.508C58.5252 8.76133 59.8585 8.388 61.3305 8.388C62.5892 8.388 63.6878 8.644 64.6265 9.156C65.5865 9.668 66.3225 10.34 66.8345 11.172V8.644H72.3065V26.5H66.8345V23.972C66.3012 24.804 65.5545 25.476 64.5945 25.988C63.6558 26.5 62.5572 26.756 61.2985 26.756C59.8478 26.756 58.5252 26.3827 57.3305 25.636C56.1358 24.868 55.1865 23.7907 54.4825 22.404C53.7998 20.996 53.4585 19.3747 53.4585 17.54ZM66.8345 17.572C66.8345 16.2067 66.4505 15.1293 65.6825 14.34C64.9358 13.5507 64.0185 13.156 62.9305 13.156C61.8425 13.156 60.9145 13.5507 60.1465 14.34C59.3998 15.108 59.0265 16.1747 59.0265 17.54C59.0265 18.9053 59.3998 19.9933 60.1465 20.804C60.9145 21.5933 61.8425 21.988 62.9305 21.988C64.0185 21.988 64.9358 21.5933 65.6825 20.804C66.4505 20.0147 66.8345 18.9373 66.8345 17.572ZM81.7373 11.62C82.3773 10.6387 83.1773 9.87067 84.1373 9.316C85.0973 8.74 86.1639 8.452 87.3373 8.452V14.244H85.8333C84.4679 14.244 83.4439 14.5427 82.7613 15.14C82.0786 15.716 81.7373 16.74 81.7373 18.212V26.5H76.2653V8.644H81.7373V11.62ZM99.9048 21.86V26.5H97.1208C95.1368 26.5 93.5901 26.02 92.4808 25.06C91.3714 24.0787 90.8168 22.4893 90.8168 20.292V13.188H88.6408V8.644H90.8168V4.292H96.2888V8.644H99.8728V13.188H96.2888V20.356C96.2888 20.8893 96.4168 21.2733 96.6728 21.508C96.9288 21.7427 97.3554 21.86 97.9528 21.86H99.9048ZM116.553 14.98C117.854 15.2573 118.899 15.908 119.689 16.932C120.478 17.9347 120.873 19.0867 120.873 20.388C120.873 22.2653 120.211 23.7587 118.889 24.868C117.587 25.956 115.763 26.5 113.417 26.5H102.953V4.036H113.065C115.347 4.036 117.129 4.55867 118.409 5.604C119.71 6.64933 120.361 8.068 120.361 9.86C120.361 11.1827 120.009 12.2813 119.305 13.156C118.622 14.0307 117.705 14.6387 116.553 14.98ZM108.425 13.124H112.009C112.905 13.124 113.587 12.932 114.057 12.548C114.547 12.1427 114.793 11.556 114.793 10.788C114.793 10.02 114.547 9.43333 114.057 9.028C113.587 8.62267 112.905 8.42 112.009 8.42H108.425V13.124ZM112.457 22.084C113.374 22.084 114.078 21.8813 114.569 21.476C115.081 21.0493 115.337 20.4413 115.337 19.652C115.337 18.8627 115.07 18.244 114.537 17.796C114.025 17.348 113.31 17.124 112.393 17.124H108.425V22.084H112.457ZM126.799 6.788C125.839 6.788 125.049 6.51067 124.431 5.956C123.833 5.38 123.535 4.676 123.535 3.844C123.535 2.99067 123.833 2.28667 124.431 1.732C125.049 1.156 125.839 0.867998 126.799 0.867998C127.737 0.867998 128.505 1.156 129.103 1.732C129.721 2.28667 130.031 2.99067 130.031 3.844C130.031 4.676 129.721 5.38 129.103 5.956C128.505 6.51067 127.737 6.788 126.799 6.788ZM129.519 8.644V26.5H124.047V8.644H129.519ZM143.436 21.86V26.5H140.652C138.668 26.5 137.121 26.02 136.012 25.06C134.903 24.0787 134.348 22.4893 134.348 20.292V13.188H132.172V8.644H134.348V4.292H139.82V8.644H143.404V13.188H139.82V20.356C139.82 20.8893 139.948 21.2733 140.204 21.508C140.46 21.7427 140.887 21.86 141.484 21.86H143.436ZM163.316 17.284C163.316 17.796 163.284 18.3293 163.22 18.884H150.836C150.921 19.9933 151.273 20.8467 151.892 21.444C152.532 22.02 153.311 22.308 154.228 22.308C155.593 22.308 156.543 21.732 157.076 20.58H162.9C162.601 21.7533 162.057 22.8093 161.268 23.748C160.5 24.6867 159.529 25.4227 158.356 25.956C157.183 26.4893 155.871 26.756 154.42 26.756C152.671 26.756 151.113 26.3827 149.748 25.636C148.383 24.8893 147.316 23.8227 146.548 22.436C145.78 21.0493 145.396 19.428 145.396 17.572C145.396 15.716 145.769 14.0947 146.516 12.708C147.284 11.3213 148.351 10.2547 149.716 9.508C151.081 8.76133 152.649 8.388 154.42 8.388C156.148 8.388 157.684 8.75067 159.028 9.476C160.372 10.2013 161.417 11.236 162.164 12.58C162.932 13.924 163.316 15.492 163.316 17.284ZM157.716 15.844C157.716 14.9053 157.396 14.1587 156.756 13.604C156.116 13.0493 155.316 12.772 154.356 12.772C153.439 12.772 152.66 13.0387 152.02 13.572C151.401 14.1053 151.017 14.8627 150.868 15.844H157.716Z" fill="black"/>
</svg>
